<?xml version="1.0" encoding="iso-8859-1"?>
<!-- Generator: Adobe Illustrator 27.0.0, SVG Export Plug-In . SVG Version: 6.00 Build 0)  -->
<svg version="1.1" xmlns="http://www.w3.org/2000/svg" xmlns:xlink="http://www.w3.org/1999/xlink" x="0px" y="0px" width="100px"
	 height="35.818px" viewBox="0 0 100 35.818" enable-background="new 0 0 100 35.818" xml:space="preserve">
<g id="Background">
</g>
<g id="Layer_4">
</g>
<g id="Layer_2">
	<g>
		
			<image overflow="visible" width="1614" height="1002" xlink:href="6D6980752653AA1E.png"  transform="matrix(1 0 0 1 -1587 -411.5589)">
		</image>
	</g>
	<g>
		<path fill="#EDFCF5" d="M20.4,9.995c-0.514-1.136-1.299-1.932-2.584-2.182c-1.109-0.216-2.203-0.509-3.309-0.745
			c-1.744-0.372-3.522-0.623-5.229-1.118c-1.369-0.397-2.649-1.095-3.98-1.631C4.92,4.166,4.501,4.112,3.883,3.959
			C4.614,4.76,5.488,9.828,6.174,10.58C5.11,10.381,4.199,9.208,3.335,9.047c-0.01,0.046,0.294,2.452,0.284,2.499
			c0.733,0.486,0.893,2.305,1.626,2.792c-0.027,0.052-0.054,0.103-0.081,0.155c-0.5,0-1.001,0-1.582,0
			c1.141,0.639,2.209,1.238,3.277,1.836c-0.029,0.077-0.058,0.153-0.087,0.23c-0.28,0.036-0.559,0.072-0.848,0.109
			c0.177,0.219,0.341,0.422,0.645,0.797c-1.474,0-2.746,0-4.019,0c-0.013,0.059-0.027,0.118-0.04,0.177
			c0.237,0.161,0.475,0.322,0.828,0.562c-0.451,0.112-0.813,0.202-1.158,0.288c0.933,0.308,1.91,0.564,2.831,0.952
			c0.93,0.392,1.764,1.054,2.717,1.338c0.872,0.26,1.853,0.138,2.777,0.25c0.694,0.084,1.413,0.178,2.056,0.431
			c1.505,0.594,1.689,1.093,1.408,2.679c-0.209,1.177-0.302,2.374-0.453,3.623c0.368-0.073,0.632-0.125,0.897-0.178
			c0.241,0.443,0.442,0.874,0.698,1.27c0.905,1.397,2.419,1.833,3.881,2.132c1.99,0.407,4.04,0.509,6.054,0.812
			c2.139,0.322,4.272,0.694,6.396,1.105c2.075,0.402,4.137,0.546,6.266,0.46c2.875-0.116,5.537-1.06,8.295-1.632
			c1.447-0.3,2.944-0.36,4.414-0.555c2.425-0.321,4.735,0.428,7.094,0.718c2.455,0.302,4.893,0.568,7.381,0.094
			c2.506-0.478,5.066-0.687,7.621-0.485c1.652,0.131,3.289,0.446,4.931,0.69c2.031,0.302,4.009,0.052,5.965-0.518
			c0.53-0.154,1.088-0.209,1.622-0.354c0.306-0.083,0.601-0.23,0.877-0.389c0.738-0.426,1.561-0.771,2.17-1.34
			c0.812-0.757,1.458-1.691,2.163-2.559c0.044-0.054,0.005-0.194-0.025-0.283c-0.654-1.907-1.312-10.935-2.471-12.622
			c-0.806-1.174-0.76,5.953,0.339,5.071c1.136-0.913,2.454-1.347,3.849-1.68c1.469-0.351,2.959-0.702,4.345-1.28
			c0.909-0.379,1.649-1.159,2.465-1.76c-0.045-0.086-0.09-0.172-0.135-0.258c-0.44,0.08-0.881,0.16-1.559,0.284
			c0.324-0.352,1.153-3.345,1.485-3.705c-0.523,0.051-2.065,0.764-2.599,0.816c0.721-0.613,1.625-4.131,2.206-4.625
			c-0.02-0.063-0.221-0.239-0.242-0.302c-1.051,0.208-1.691,0.921-2.782,1.137c-0.074-0.583,0.387-2.726,0.485-3.132
			c0.208-0.863-0.823,0.645-1.579,0.757c0.077-0.536,0.147-3.397,0.253-4.13c-0.632,0.486-1.123,0.834-1.58,1.221
			c-1.536,1.3-3.374,1.908-5.309,2.225C85.707,5.049,84.22,5.758,82.99,6.84c-0.497,0.437-0.528,1.398-0.771,2.12
			c0.51,0.534,0.969,1.131,1.542,1.587c0.606,0.483,1.315,0.837,1.987,1.237c0.414,0.247,0.489,0.558,0.361,1.022
			c-0.288,1.046-1.053,1.397-2.022,1.503c-1.531,0.468-3.044,1.01-4.597,1.387c-2.551,0.619-5.108-0.03-7.664-0.096
			c-1.072-0.028-2.155,0.174-3.226,0.323c-3.468,0.485-6.909,0.61-10.401,0.013c-2.984-0.51-6.035-0.75-9.066-0.497
			c-2.302,0.192-4.576,0.703-6.875,0.963c-1.54,0.174-3.102,0.201-4.655,0.212c-1.389,0.01-2.783-0.045-4.166-0.162
			c-0.77-0.065-1.522-0.329-2.287-0.477c-1.551-0.3-3.101-0.611-4.661-0.856c-0.594-0.093-1.216,0-1.825-0.018
			c-1.466-0.042-2.931-0.099-4.396-0.15c-0.039,0.029-0.088,0.09-0.116,0.082c-1.546-0.44-3.089-0.892-4.636-1.329
			c-0.509-0.144-0.513-0.548-0.422-0.904c0.057-0.224,0.305-0.505,0.52-0.562c0.603-0.161,1.231-0.268,1.855-0.309
			C18.832,11.843,20.001,11.511,20.4,9.995z"/>
		<path fill="#ABB9AC" d="M20.4,9.995c-0.399,1.516-1.568,1.848-2.931,1.937c-0.624,0.041-1.252,0.148-1.855,0.309
			c-0.215,0.058-0.463,0.339-0.52,0.562c-0.091,0.356-0.087,0.76,0.422,0.904c1.547,0.437,3.09,0.889,4.636,1.329
			c0.028,0.008,0.077-0.053,0.116-0.082c0.018-0.778-0.005-1.561,0.068-2.334c0.061-0.641,0.272-1.267,0.34-1.908
			C20.699,10.485,20.498,10.235,20.4,9.995z"/>
		<path fill="#ABB9AC" d="M84.087,14.31c0.97-0.106,1.734-0.457,2.022-1.503c0.128-0.464,0.053-0.776-0.361-1.022
			c-0.671-0.399-1.381-0.754-1.987-1.237c-0.573-0.456-1.032-1.053-1.542-1.587c-0.585,1.467,0.15,2.684,0.786,3.895
			C83.282,13.384,83.721,13.828,84.087,14.31z"/>
	</g>
</g>
<g id="Layer_3" display="none">
</g>
</svg>
