<?xml version="1.0" encoding="iso-8859-1"?>
<!-- Generator: Adobe Illustrator 27.0.0, SVG Export Plug-In . SVG Version: 6.00 Build 0)  -->
<svg version="1.1" xmlns="http://www.w3.org/2000/svg" xmlns:xlink="http://www.w3.org/1999/xlink" x="0px" y="0px" width="100px"
	 height="100px" viewBox="0 0 100 100" enable-background="new 0 0 100 100" xml:space="preserve">
<g id="Background">
</g>
<g id="Layer_4">
</g>
<g id="Layer_2">
	<g>
		<path fill="#FEFEFE" stroke="#000000" stroke-width="1.4717" stroke-miterlimit="10" d="M75.996,59.975
			c2.266,6.475,0.476,20.836-14.645,29.765c-1.072-2.381-2.619-3.929-2.619-3.929c-2.857,5.477-10.992,9.726-10.992,9.726
			c-7.299-3.297-13.416-11.036-13.416-11.036c-1.766,2.737-2.381,1.429-2.381,1.429c-10.361-5.004-8.515-14.558-8.015-17.619
			c-0.029,1.236-3.65,1.619-3.65,1.619c2.065-3.472,4.562-10.449,6.652-20.485c0.412-1.943,0.971-4.444,1.589-7.152
			c0.912-0.442,1.854-0.795,2.796-1.118c-1.707,5.004-2.502,11.92-2.178,15.011c0,0,3.591-1.825,5.327-4.121
			c0,0,1.266,1.678,2.679,3.65c0,0,4.297-3.473,6.505-5.386l5.563,0.324c0,0,3.709,2.679,6.093,3.885c0,0,2.296-2.472,3.179-3.885
			c0,0,5.151,2.384,7.27,3.562c1.678-3.002,1.884-8.889,1.678-13.245c2.178,0.53,4.15,1.089,5.857,1.648
			c1.707,8.447,3.503,15.717,4.798,17.66C76.291,60.011,75.996,59.975,75.996,59.975z"/>
		<path fill="#AADBFD" stroke="#000000" stroke-width="1.4717" stroke-miterlimit="10" d="M65.754,56.883
			c-2.119-1.177-7.27-3.562-7.27-3.562c-0.883,1.413-3.179,3.885-3.179,3.885C52.921,56,48.603,52.57,48.603,52.57l-5.241-0.494
			c-2.208,1.913-6.427,4.746-6.427,4.746c-1.413-1.972-2.966-3.362-2.966-3.362c-2.175,2.175-4.831,2.725-4.831,2.725
			c-0.324-3.09,0.471-10.007,2.178-15.011c11.95-4.238,26.078-2.649,36.115-0.206C67.637,45.324,67.431,53.88,65.754,56.883z"/>
		<path fill="#FACC00" stroke="#000000" stroke-width="1.4717" stroke-miterlimit="10" d="M73.288,42.616
			c-1.707-0.559-3.679-1.118-5.857-1.648c-10.037-2.443-24.165-4.032-36.115,0.206c-0.942,0.324-1.884,0.677-2.796,1.118
			c2.531-11.273,6.181-26.667,6.181-26.667l4.533,14.246L50.89,4.941l8.094,23.311l9.389-14.393
			C69.168,19.864,71.169,32.138,73.288,42.616z"/>
		<path fill="#AADBFD" stroke="#000000" stroke-width="1.4717" stroke-linecap="round" stroke-miterlimit="10" d="M43.574,49.408
			c-0.079,1.384-1.347,8.614-3.804,15.537c-2.698,7.603-7.053,13.844-6.498,14.152s5.627-4.461,10.381-13.768
			s5.785-15.69,5.785-15.69"/>
		<path d="M37.651,42.715c5.827-0.056,6.632,10.333,0.508,10.799S30.958,42.779,37.651,42.715z"/>
		<path d="M54.781,41.993c6.429-3.148,11.665,7.886,5.078,11.644C53.272,57.395,47.397,45.609,54.781,41.993z"/>
		<circle fill="#FFFFFF" cx="36.372" cy="45.85" r="1.592"/>
		<circle fill="#FFFFFF" cx="54.289" cy="45.853" r="1.629"/>
		<polygon fill="#FF0D3D" points="31.704,29.959 33.49,34.226 29.521,37.897 		"/>
		<polygon fill="#FF0D3D" points="49.579,20.104 46.32,25.076 45.893,29.054 48.969,33.519 52.74,29.153 52.507,24.634 		"/>
		<polygon fill="#FF0D3D" points="70.104,27.677 67.425,32.737 71.692,35.813 		"/>
		<path fill="none" stroke="#000000" stroke-width="1.4717" stroke-miterlimit="10" d="M73.288,42.616
			c-1.707-0.559-3.679-1.118-5.857-1.648c-10.037-2.443-24.165-4.032-36.115,0.206c-0.942,0.324-1.884,0.677-2.796,1.118
			c2.531-11.273,6.181-26.667,6.181-26.667l4.533,14.246L50.89,4.941l8.094,23.311l9.389-14.393
			C69.168,19.864,71.169,32.138,73.288,42.616z"/>
	</g>
</g>
<g id="Layer_3" display="none">
</g>
</svg>
