<?xml version="1.0" encoding="iso-8859-1"?>
<!-- Generator: Adobe Illustrator 27.0.0, SVG Export Plug-In . SVG Version: 6.00 Build 0)  -->
<svg version="1.1" xmlns="http://www.w3.org/2000/svg" xmlns:xlink="http://www.w3.org/1999/xlink" x="0px" y="0px" width="100px"
	 height="100px" viewBox="0 0 100 100" enable-background="new 0 0 100 100" xml:space="preserve">
<g id="Background">
</g>
<g id="Layer_4">
</g>
<g id="Layer_2">
	<g>
		
			<ellipse fill="#F2C92F" stroke="#000000" stroke-width="1.4717" stroke-miterlimit="10" cx="50.619" cy="50.473" rx="29.464" ry="28.737"/>
		<circle cx="41.743" cy="45.622" r="9.541"/>
		<circle cx="69.991" cy="38.759" r="8.81"/>
		<circle fill="#FFFFFF" cx="67.084" cy="36.724" r="4.268"/>
		<circle fill="#FFFFFF" cx="38.915" cy="43.058" r="4.365"/>
		<path fill="#F2C92F" stroke="#000000" stroke-width="1.4717" stroke-miterlimit="10" d="M26.123,49.58
			c-3.39,2.556-6.953,12.67-2.6,14.779c4.353,2.109,6.8-4.5,6.8-4.5"/>
		<path fill="#F2C92F" stroke="#000000" stroke-width="1.4717" stroke-miterlimit="10" d="M55.179,41.271
			c-7.821,2.633-11.922,7.878-11.526,15.414s4.577,9.989,8.865,8.966c6.174-1.473,5.344-8.999,4.588-12.835s-0.847-1.75,0.589-2.099
			c1.435-0.349,0.808-3.047,2.573,1.084c1.765,4.131,4.857,10.115,10.375,7.793c3.499-1.472,4.923-4.717,1.542-10.611
			S62.984,38.643,55.179,41.271z"/>
		<path d="M56.025,44.996c-3.356,1.068-5.029,3.192-4.527,5.153c0.502,1.96,4.313,2.737,6.623,1.96
			c2.31-0.777,5.562-3.234,4.877-5.427C62.313,44.488,59.428,43.913,56.025,44.996z"/>
	</g>
</g>
<g id="Layer_3" display="none">
</g>
</svg>
