<?xml version="1.0" encoding="iso-8859-1"?>
<!-- Generator: Adobe Illustrator 27.0.0, SVG Export Plug-In . SVG Version: 6.00 Build 0)  -->
<svg version="1.1" xmlns="http://www.w3.org/2000/svg" xmlns:xlink="http://www.w3.org/1999/xlink" x="0px" y="0px" width="100px"
	 height="100px" viewBox="0 0 100 100" enable-background="new 0 0 100 100" xml:space="preserve">
<g id="Background">
</g>
<g id="Layer_4">
</g>
<g id="Layer_2">
	<g>
		<path fill="#FFFFFF" stroke="#000000" stroke-width="1.4717" stroke-miterlimit="10" d="M48.17,26.446
			c-7.692,0.095-15.483,1.265-19.24,3.483c-0.843-7.913-6.607-9.818-10.154-1.393c-3.767,8.948-4.254,33.584,2.335,43.12
			c13.697,12.657,39.722,14.347,55.326-1.257c6.935-10.229,3.474-34.411,1.045-42.865c-2.525-8.786-9.525-6.205-10.102,1.732
			c-3.83-2.091-11.656-2.999-19.346-2.837"/>
		<path fill="#FDDEC2" stroke="#000000" stroke-width="1.4717" stroke-miterlimit="10" d="M49.485,36.171
			c-15.037,0.039-23.341,5.926-23.163,18.522c0.159,11.313,8.848,17.233,23.019,16.974c13.31-0.243,22.233-5.979,22.513-17.125
			C72.121,43.859,64.562,36.21,49.485,36.171z"/>
		<path d="M60.09,46.044c-3.876,0-4.645,9.871-0.581,10.258S64.541,46.044,60.09,46.044z"/>
		<path d="M37.617,46.021c-4.314,0.75-3.26,11.887,1.34,11.531C43.556,57.196,42.572,45.16,37.617,46.021z"/>
		<circle fill="#FFFFFF" cx="59.525" cy="48.705" r="1.592"/>
		<circle fill="#FFFFFF" cx="37.554" cy="48.897" r="1.629"/>
	</g>
	<g>
		
			<image overflow="visible" width="1614" height="1002" xlink:href="A882FB69F282A469.png"  transform="matrix(1 0 0 1 -1587 -164.0952)">
		</image>
	</g>
</g>
<g id="Layer_3" display="none">
</g>
</svg>
