<?xml version="1.0" encoding="iso-8859-1"?>
<!-- Generator: Adobe Illustrator 27.0.0, SVG Export Plug-In . SVG Version: 6.00 Build 0)  -->
<svg version="1.1" xmlns="http://www.w3.org/2000/svg" xmlns:xlink="http://www.w3.org/1999/xlink" x="0px" y="0px" width="100px"
	 height="100px" viewBox="0 0 100 100" enable-background="new 0 0 100 100" xml:space="preserve">
<g id="Background">
</g>
<g id="Layer_4">
</g>
<g id="Layer_2">
	<g>
		<path stroke="#000000" stroke-width="1.4717" stroke-miterlimit="10" d="M61.927,22.236c-6.13-6.578-15.698-7.027-25.864-3.289
			S21.561,36.14,21.71,41.073c0.15,4.934-0.299,14.95-2.691,18.389s-4.485,12.409-1.944,16.296c0.15-4.635,2.243-8.073,2.243-8.073
			c-0.897,5.532-0.299,8.372,0.748,9.867c1.047,1.495,20.333-2.542,29.751-1.794s21.529,2.093,23.771,0.598s2.99-3.14,2.841-4.934
			c0.897,2.392,0,5.98,0,5.98c4.186-4.635,7.027-10.166,3.887-16.445s-5.98-12.11-5.532-17.641S74.485,26.721,61.927,22.236z"/>
		<path fill="#EAFDFB" stroke="#000000" stroke-width="1.4717" stroke-miterlimit="10" d="M55.805,76.378
			c-0.576-5.567,6.033-14.612,6.033-14.612c7.295-3.456,9.791-7.487,10.943-12.479c-5.951,0.384-8.831,3.648-8.831,3.648
			c1.321-12.201-3.264-21.694-3.264-21.694c-6.719,6.911-14.782,1.92-21.502,6.335c1.536-4.224,2.88-5.951,2.88-5.951
			c-7.487,4.224-9.067,6.012-10.219,11.771s0.044,9.73,0.044,9.73c-4.032-4.416-9.599-4.799-9.599-4.799
			c2.304,8.063,7.103,11.135,9.215,12.095c6.335,7.103,10.872,8.689,12.024,15.217S55.805,76.378,55.805,76.378z"/>
		<path d="M57.484,42.727c-4.416,0-5.293,11.248-0.662,11.689S62.556,42.727,57.484,42.727z"/>
		<path d="M38.417,42.878c-4.611,0.802-3.484,12.704,1.432,12.323S43.713,41.957,38.417,42.878z"/>
		<circle fill="#FFFFFF" cx="56.891" cy="46.706" r="1.814"/>
		<circle fill="#FFFFFF" cx="57.387" cy="49.981" r="1.153"/>
		<circle fill="#EC000B" cx="54.054" cy="71.887" r="0.683"/>
		<circle fill="#EC000B" cx="53.829" cy="73.78" r="0.683"/>
		<circle fill="#FFFFFF" cx="38.46" cy="47.009" r="1.702"/>
		<circle fill="#FFFFFF" cx="38.925" cy="50.08" r="1.081"/>
	</g>
</g>
<g id="Layer_3" display="none">
</g>
</svg>
