<?xml version="1.0" encoding="iso-8859-1"?>
<!-- Generator: Adobe Illustrator 27.0.0, SVG Export Plug-In . SVG Version: 6.00 Build 0)  -->
<svg version="1.1" xmlns="http://www.w3.org/2000/svg" xmlns:xlink="http://www.w3.org/1999/xlink" x="0px" y="0px" width="100px"
	 height="100px" viewBox="0 0 100 100" enable-background="new 0 0 100 100" xml:space="preserve">
<g id="Background">
</g>
<g id="Layer_4">
</g>
<g id="Layer_2">
	<path fill="#FF66CC" stroke="#000000" stroke-width="1.4717" stroke-miterlimit="10" d="M56.256,20.549
		c-10.405-0.473-28.681,1.497-27.735,21.36c0.946,19.863-14.289,32.279-3.175,39.846c11.114,7.567,45.778,9.26,53.91-5.167
		c5.339-9.473-2.928-24.63-4.134-32.897C74.246,37.687,71.863,22.204,56.256,20.549z"/>
	<path fill="#FFCEFE" stroke="#000000" stroke-width="1.4717" stroke-miterlimit="10" d="M67.843,44.623
		c0.7,4.255,3.38,22.418-8.208,26.407c-1.726,0.594-2.997,2.062-3.078,3.886l-0.152,3.432c-3.041,1.41-7.467,1.31-8.847,0.14
		l-0.21-3.779c-0.099-1.781-1.32-3.268-3.017-3.818c-7.473-2.421-10.589-7.379-8.437-24.929c2.408-19.636,10.955-6.925,10.955-6.925
		L67.843,44.623z"/>
	<path fill="#FF66CC" d="M68.623,46.207c-0.291-2.783-27.171-6.597-32.315-0.224s-3.131-0.671-3.131-0.671L35.86,31l21.804-5.814
		l13.082,14.201l0.335,6.597L68.623,46.207z"/>
	<path fill="none" stroke="#000000" stroke-width="1.4717" stroke-linecap="round" stroke-miterlimit="10" d="M68.623,46.079
		c-0.291-2.783-28.462-6.09-33.768,1.093"/>
	<path d="M61.66,47.953c-4.416,0-5.293,11.248-0.662,11.689C65.629,60.083,66.732,47.953,61.66,47.953z"/>
	<path d="M42.593,48.104c-4.611,0.802-3.484,12.704,1.432,12.323S47.889,47.183,42.593,48.104z"/>
	<circle fill="#FFFFFF" cx="61.067" cy="51.931" r="1.814"/>
	<circle fill="#FFFFFF" cx="61.563" cy="55.206" r="1.153"/>
	<circle fill="#FFFFFF" cx="42.636" cy="52.234" r="1.702"/>
	<circle fill="#FFFFFF" cx="43.101" cy="55.306" r="1.081"/>
	<path fill="#FECC32" stroke="#000000" stroke-width="1.4717" stroke-miterlimit="10" d="M74.424,39.467
		c-10.184-3.208-33.907-5.916-45.916,1.118c0-0.942,0.029-1.854,0.118-2.679c11.832-5.269,20.368-4.621,21.192-17.336
		c0.088-0.824,0.088-1.736,0.088-2.708c-2.355-0.088-3.208-1.413-3.444-3.355c-0.236-1.943,0.677-4.533,4.327-4.68
		c3.679-0.177,4.68,2.325,4.68,4.268c0,1.943-1.737,3.679-3.385,3.679c0.029,0.942,0.059,1.854,0.147,2.678
		c0.854,13.127,5.269,11.862,21.457,16.012C73.983,37.495,74.248,38.525,74.424,39.467z"/>
	<circle fill="#458EB7" cx="50.773" cy="14.002" r="2.511"/>
	<circle fill="#C2E4FB" cx="50.773" cy="14.002" r="1.71"/>
</g>
<g id="Layer_3" display="none">
</g>
</svg>
