<?xml version="1.0" encoding="iso-8859-1"?>
<!-- Generator: Adobe Illustrator 27.0.0, SVG Export Plug-In . SVG Version: 6.00 Build 0)  -->
<svg version="1.1" xmlns="http://www.w3.org/2000/svg" xmlns:xlink="http://www.w3.org/1999/xlink" x="0px" y="0px" width="100px"
	 height="100px" viewBox="0 0 100 100" enable-background="new 0 0 100 100" xml:space="preserve">
<g id="Background">
</g>
<g id="Layer_4">
</g>
<g id="Layer_2">
	<g>
		<path fill="#5D9C92" stroke="#000000" stroke-width="1.4717" stroke-miterlimit="10" d="M39.875,26.025l-13.626-3.621
			c-2.287,1.715,0.476,51.454,2.382,54.503c1.906,3.049,10.481,4.764,12.292,4.669S39.875,26.025,39.875,26.025z"/>
		<ellipse cx="30.156" cy="56.15" rx="2.239" ry="5.684"/>
		<path fill="#6EE4CA" stroke="#000000" stroke-width="1.4717" stroke-miterlimit="10" d="M36.825,27.54
			c0,0-12.058-3.578-10.576-5.137c1.482-1.558,27.692-5.979,34.197-6.169c6.505-0.189,17.415,3.683,18.181,4.589
			S36.825,27.54,36.825,27.54z"/>
		<path fill="#6CBBA5" stroke="#000000" stroke-width="1.4717" stroke-miterlimit="10" d="M78.627,20.824
			c-2.179-1.997-41.157,0.227-43.658,3.866s-0.682,54.118,3.183,56.392s39.338-0.227,42.067-3.866
			C82.948,73.578,81.356,23.325,78.627,20.824z"/>
		<path fill="#D9FFE9" stroke="#000000" stroke-width="1.4717" stroke-miterlimit="10" d="M75.567,25.2
			c1.776,1.657,2.835,27.156,1.343,28.947c-1.492,1.791-34.169,5.372-36.557,2.835c-2.387-2.537-3.283-26.41-0.895-29.245
			S73.329,23.111,75.567,25.2z"/>
		<path d="M67.331,33.787c-5.814,0.395-5.814,10.814,0.329,10.806C73.802,44.584,74.009,33.333,67.331,33.787z"/>
		<path d="M50.197,34.391c-6.653-2.641-11.021,8.764-4.163,12.002S57.838,37.425,50.197,34.391z"/>
		<circle fill="#FFFFFF" cx="68.848" cy="36.814" r="1.592"/>
		<circle fill="#FFFFFF" cx="50.985" cy="38.201" r="1.629"/>
		<circle fill="#FA0705" cx="70.482" cy="72.812" r="3.31"/>
		<circle fill="#08F251" cx="74.814" cy="67.929" r="1.924"/>
		<circle fill="#112547" cx="73.385" cy="60.781" r="1.924"/>
		<polygon fill="#2DDBE4" points="68.45,68.283 66.635,66.355 65.614,69.077 		"/>
		<polygon fill="#F6DF2E" points="48.808,65.993 46.331,66.268 46.056,68.195 43.167,68.47 43.03,71.634 45.919,71.772 
			45.919,73.698 48.67,73.698 48.67,70.671 51.284,70.671 51.284,68.057 48.67,68.195 		"/>
		<polygon fill="#112547" points="42.35,77.002 42.35,78.521 47.532,78.521 47.532,76.734 		"/>
		<polygon fill="#112547" points="49.855,76.645 49.766,78.075 55.127,77.985 55.216,75.841 		"/>
		<polygon points="41.724,61.902 41.724,62.885 59.505,62.528 59.684,60.562 		"/>
		<path fill="#5CACAC" stroke="#000000" stroke-width="1.4717" stroke-miterlimit="10" d="M29.359,53.712
			c-5.91,0.887-14.014,7.039-12.627,14.32c1.062,5.573,6.369,3.185,6.9-0.133c0.505-3.158,2.88-8.383,5.618-8.492
			C31.987,59.298,31.549,53.384,29.359,53.712z"/>
	</g>
	<g>
		
			<image overflow="visible" width="1614" height="1002" xlink:href="5987454B08A483E2.png"  transform="matrix(1 0 0 1 -1587 -290)">
		</image>
	</g>
</g>
<g id="Layer_3" display="none">
</g>
</svg>
